#!OML:ASF F:\VICON\USERDATA\INSTALL\rory3\rory3.ASF
:FULLY-SPECIFIED
:DEGREES
644
root 0.122471 18.6576 0.668034 -208.136 -84.1231 203.961
lowerback 2.39084 -1.0496 -4.25939
upperback 1.82317 -1.54248 -3.0186
thorax 0.559728 -0.826588 -0.684374
lowerneck -4.44161 -10.6441 -12.8834
upperneck 15.9793 -14.9811 8.61613
head 7.24542 -7.51553 3.52218
rclavicle -1.28899e-014 -3.18055e-015
rhumerus 36.1607 -25.4823 -36.9597
rradius 16.2985
rwrist 40.6165
rhand -35.2936 -18.8434
rfingers 7.12502
rthumb -8.42814 -48.6552
lclavicle -1.28899e-014 -3.18055e-015
lhumerus 48.5368 -47.371 48.203
lradius 88.6931
lwrist -13.6151
lhand -28.5405 38.4654
lfingers 7.12502
lthumb -1.90796 68.4366
rfemur -11.3082 12.0911 10.8439
rtibia 37.1843
rfoot -7.26994 -20.6169
rtoes 0.606434
lfemur 3.58462 -5.65963 -16.55
ltibia 21.773
lfoot -22.1466 23.1149
ltoes -0.953688
645
root 0.120223 18.659 0.672376 -208.296 -84.2277 204.096
lowerback 2.3439 -1.07778 -4.2763
upperback 1.80263 -1.57949 -3.08521
thorax 0.564204 -0.845339 -0.743546
lowerneck -4.36012 -10.5927 -13.0749
upperneck 16.2649 -14.9934 8.88663
head 7.36138 -7.52257 3.63587
rclavicle 1.35608e-014 6.36111e-015
rhumerus 36.5338 -26.1963 -37.7143
rradius 16.0024
rwrist 41.8241
rhand -34.8963 -18.5461
rfingers 7.12502
rthumb -8.0447 -48.373
lclavicle 1.35608e-014 6.36111e-015
lhumerus 49.1217 -47.7629 47.8843
lradius 87.2923
lwrist -13.5499
lhand -27.5801 38.2903
lfingers 7.12502
lthumb -0.980383 68.2678
rfemur -11.3207 12.0904 10.6748
rtibia 36.9828
rfoot -6.96623 -19.5928
rtoes 1.17566
lfemur 3.57419 -5.64454 -16.5834
ltibia 21.8008
lfoot -22.1209 23.0485
ltoes -0.986781
646
root 0.117023 18.6609 0.675935 -208.994 -84.3762 204.817
lowerback 2.24896 -1.17845 -4.35838
upperback 1.79301 -1.70793 -3.06046
thorax 0.613182 -0.910491 -0.672699
lowerneck -4.3987 -10.5154 -13.1937
upperneck 16.541 -14.916 8.94339
head 7.46273 -7.49109 3.67548
rclavicle 1.22687e-014 4.77083e-014
rhumerus 37.1705 -26.893 -38.5534
rradius 15.6695
rwrist 43.0051
rhand -34.5514 -17.9828
rfingers 7.12502
rthumb -7.71176 -47.8222
lclavicle 1.22687e-014 4.77083e-014
lhumerus 49.6327 -47.976 47.7716
lradius 85.7806
lwrist -13.071
lhand -25.8826 37.8137
lfingers 7.12502
lthumb 0.659144 67.7924
rfemur -11.3282 12.141 10.5079
rtibia 36.6884
rfoot -6.86288 -18.4976
rtoes 1.55909
lfemur 3.5169 -5.57434 -16.5461
ltibia 21.8004
lfoot -22.0508 22.8402
ltoes -0.997452
647
root 0.112636 18.6624 0.677169 -210.484 -84.4982 206.307
lowerback 2.19584 -1.26569 -4.47091
upperback 1.79783 -1.81828 -2.91584
thorax 0.658602 -0.966445 -0.461647
lowerneck -4.54435 -10.5075 -13.3726
upperneck 16.842 -14.8808 8.83882
head 7.58923 -7.48845 3.66025
rclavicle -2.01083e-014 -1.74931e-014
rhumerus 37.8956 -27.6657 -39.3559
rradius 15.37
rwrist 44.3364
rhand -33.8261 -17.5245
rfingers 7.12502
rthumb -7.01172 -47.3884
lclavicle -2.01083e-014 -1.74931e-014
lhumerus 50.2282 -48.2043 47.5848
lradius 84.3318
lwrist -11.8398
lhand -24.3286 36.6945
lfingers 7.12502
lthumb 2.15996 66.6633
rfemur -11.2362 12.3009 10.4582
rtibia 36.2955
rfoot -6.86942 -17.4709
rtoes 1.43703
lfemur 3.48841 -5.41708 -16.3924
ltibia 21.7866
lfoot -21.7816 22.5505
ltoes -1.27137
648
root 0.106132 18.6617 0.674119 -211.002 -84.662 206.778
lowerback 2.17537 -1.3033 -4.59091
upperback 1.8094 -1.86869 -2.91499
thorax 0.687307 -0.993547 -0.394276
lowerneck -4.65317 -10.5434 -13.4168
upperneck 17.1313 -14.9297 8.75478
head 7.70643 -7.51928 3.62332
rclavicle 2.70844e-014 -5.24792e-014
rhumerus 38.3728 -28.3899 -40.0637
rradius 15.1796
rwrist 45.3434
rhand -32.7053 -17.4317
rfingers 7.12502
rthumb -5.92974 -47.3288
lclavicle 2.70844e-014 -5.24792e-014
lhumerus 51.2635 -48.6523 46.6359
lradius 83.1051
lwrist -9.50017
lhand -23.7037 36.4971
lfingers 7.12502
lthumb 2.76351 66.4589
rfemur -11.0653 12.4687 10.3188
rtibia 35.8011
rfoot -6.74921 -16.3892
rtoes 0.548572
lfemur 3.51709 -5.15105 -16.3401
ltibia 21.7654
lfoot -21.3904 22.3542
ltoes -2.20819
649
root 0.0973531 18.661 0.66864 -210.856 -84.876 206.577
lowerback 2.13581 -1.35205 -4.68629
upperback 1.82937 -1.93484 -3.03705
thorax 0.730871 -1.02939 -0.467398
lowerneck -4.76721 -10.5698 -13.3876
upperneck 17.4619 -15.0049 8.78881
head 7.8446 -7.5519 3.60971
rclavicle -3.77691e-015 6.36111e-015
rhumerus 38.7954 -29.1207 -40.8932
rradius 15.0304
rwrist 46.2631
rhand -31.6768 -17.3426
rfingers 7.12502
rthumb -4.93664 -47.2651
lclavicle -3.77691e-015 6.36111e-015
lhumerus 52.6002 -49.1894 45.1906
lradius 81.8806
lwrist -6.63277
lhand -23.9048 36.9355
lfingers 7.12502
lthumb 2.56929 66.8998
rfemur -10.8542 12.641 10.0945
rtibia 35.222
rfoot -6.84934 -15.253
rtoes 0.138348
lfemur 3.57695 -4.92215 -16.3786
ltibia 21.7029
lfoot -21.0706 22.1965
ltoes -3.01287
650
root 0.0864115 18.6613 0.663077 -212.699 -84.9719 208.372
lowerback 2.10597 -1.39215 -4.54064
upperback 1.82825 -1.9843 -3.0886
thorax 0.740721 -1.0526 -0.601499
lowerneck -4.81068 -10.6 -13.4014
upperneck 17.7603 -15.086 8.81353
head 7.96372 -7.59271 3.60295
rclavicle -9.59136e-015 7.95139e-015
rhumerus 39.1432 -29.8419 -41.6108
rradius 14.8941
rwrist 47.4477
rhand -31.1413 -17.2119
rfingers 7.12502
rthumb -4.41958 -47.1458
lclavicle -9.59136e-015 7.95139e-015
lhumerus 53.9374 -49.7115 43.8876
lradius 80.4392
lwrist -4.05859
lhand -24.1704 36.3036
lfingers 7.12502
lthumb 2.31277 66.2708
rfemur -10.601 12.983 10.1054
rtibia 34.5793
rfoot -7.41391 -14.3613
rtoes 0.516611
lfemur 3.70147 -4.86079 -16.21
ltibia 21.5792
lfoot -20.9479 21.9623
ltoes -3.06065
651
root 0.0748587 18.6615 0.659427 -213.451 -85.107 209.057
lowerback 2.0932 -1.40326 -4.51654
upperback 1.82438 -1.99868 -3.12685
thorax 0.741995 -1.05961 -0.654306
lowerneck -4.70389 -10.6119 -13.5389
upperneck 17.9015 -15.1449 8.91344
head 8.01796 -7.6289 3.65228
rclavicle 2.85753e-016 1.59028e-015
rhumerus 39.18 -29.9924 -41.5864
rradius 14.8905
rwrist 47.6807
rhand -29.9339 -17.3861
rfingers 7.12502
rthumb -3.25359 -47.341
lclavicle 2.85753e-016 1.59028e-015
lhumerus 55.2877 -50.2254 42.7121
lradius 78.9301
lwrist -1.6254
lhand -24.7836 35.1042
lfingers 7.12502
lthumb 1.7206 65.077
rfemur -10.3129 13.3934 9.98647
rtibia 33.888
rfoot -8.09913 -13.657
rtoes 0.967683
lfemur 3.87452 -4.94532 -16.2262
ltibia 21.4412
lfoot -20.9765 21.8529
ltoes -2.82703
652
root 0.0641521 18.661 0.652514 -212.263 -85.3213 207.825
lowerback 2.04843 -1.41352 -4.68161
upperback 1.81859 -2.01508 -3.22914
thorax 0.763737 -1.0707 -0.668793
lowerneck -4.61214 -10.5887 -13.6394
upperneck 18.0248 -15.1513 8.99961
head 8.05846 -7.63833 3.69823
rclavicle 1.22253e-014 -3.33958e-014
rhumerus 39.0583 -29.7913 -41.2638
rradius 14.9665
rwrist 47.3655
rhand -28.5439 -17.9606
rfingers 7.12502
rthumb -1.91122 -47.9317
lclavicle 1.22253e-014 -3.33958e-014
lhumerus 56.8248 -50.7194 41.2098
lradius 77.5962
lwrist 0.767826
lhand -25.6666 34.2274
lfingers 7.12502
lthumb 0.867721 64.2054
rfemur -10.0675 13.691 9.6976
rtibia 33.1572
rfoot -8.37087 -13.0658
rtoes 0.600552
lfemur 3.99804 -4.97744 -16.4252
ltibia 21.3055
lfoot -20.8435 21.8145
ltoes -2.81616
653
root 0.0523398 18.6617 0.63871 -213.557 -85.4339 209.153
lowerback 1.90366 -1.45627 -4.63129
upperback 1.81357 -2.06166 -3.28585
thorax 0.836856 -1.09441 -0.758919
lowerneck -4.59833 -10.5465 -13.5621
upperneck 18.1671 -15.1162 8.96369
head 8.08951 -7.62305 3.67903
rclavicle -3.65764e-014 -3.65764e-014
rhumerus 39.1373 -29.9121 -41.3676
rradius 14.9557
rwrist 47.8341
rhand -28.0606 -18.137
rfingers 7.12502
rthumb -1.44446 -48.1119
lclavicle -3.65764e-014 -3.65764e-014
lhumerus 58.4297 -51.1489 39.5353
lradius 76.3638
lwrist 2.66802
lhand -26.524 33.4849
lfingers 7.12502
lthumb 0.0396768 63.4646
rfemur -9.87766 13.9176 9.69392
rtibia 32.3964
rfoot -8.58854 -12.7078
rtoes 0.470627
lfemur 4.02315 -4.88719 -16.2883
ltibia 21.1861
lfoot -20.6158 21.672
ltoes -3.20712
654
root 0.0392892 18.6612 0.622091 -215.891 -85.5214 211.502
lowerback 1.78868 -1.47418 -4.52359
upperback 1.80977 -2.07578 -3.31495
thorax 0.892642 -1.10074 -0.85201
lowerneck -4.61843 -10.546 -13.4527
upperneck 18.3777 -15.1401 8.89349
head 8.15141 -7.63559 3.6332
rclavicle -3.23025e-015 3.18055e-015
rhumerus 39.1074 -30.1289 -41.4007
rradius 14.9533
rwrist 48.5115
rhand -27.9559 -17.9893
rfingers 7.12502
rthumb -1.34329 -47.9649
lclavicle -3.23025e-015 3.18055e-015
lhumerus 59.9643 -51.6157 38.0203
lradius 75.1421
lwrist 3.58602
lhand -27.6743 32.7737
lfingers 7.12502
lthumb -1.07131 62.7508
rfemur -9.64354 14.2344 9.79911
rtibia 31.6145
rfoot -8.934 -12.6351
rtoes 1.19581
lfemur 4.05413 -4.77277 -16.0352
ltibia 21.1039
lfoot -20.5431 21.3345
ltoes -3.20978
655
root 0.0244661 18.6616 0.60674 -217.789 -85.4891 213.385
lowerback 1.71756 -1.44883 -4.31355
upperback 1.795 -2.03559 -3.37456
thorax 0.906772 -1.07818 -1.03207
lowerneck -4.70101 -10.5788 -13.2604
upperneck 18.6335 -15.205 8.76626
head 8.23317 -7.66441 3.54672
rclavicle 1.42131e-014 2.22639e-014
rhumerus 39.2464 -30.6828 -41.8612
rradius 14.9173
rwrist 49.6403
rhand -27.8128 -17.7719
rfingers 7.12502
rthumb -1.20514 -47.7482
lclavicle 1.42131e-014 2.22639e-014
lhumerus 61.45 -52.1116 36.5108
lradius 73.9231
lwrist 3.4921
lhand -29.5053 32.2111
lfingers 7.12502
lthumb -2.8397 62.172
rfemur -9.40065 14.6457 9.95298
rtibia 30.8382
rfoot -9.01086 -12.7097
rtoes 1.12638
lfemur 4.14602 -4.59647 -15.7707
ltibia 21.0133
lfoot -20.3999 21.15
ltoes -3.39764
